<?xml version="1.0" encoding="UTF-8"?>
<svg width="16px" height="16px" viewBox="0 0 16 16" version="1.1" xmlns="http://www.w3.org/2000/svg" xmlns:xlink="http://www.w3.org/1999/xlink">
    <g id="1.通用/2.Icon图标/Line/Plus" stroke="none" stroke-width="1" fill="none" fill-rule="evenodd">
        <rect id="矩形" fill="#000000" fill-rule="nonzero" opacity="0" x="0" y="0" width="16" height="16"></rect>
        <path d="M8.46875,2.375 C8.55208333,2.375 8.59375,2.41666667 8.59375,2.5 L8.593,7.406 L13.25,7.40625 C13.3333333,7.40625 13.375,7.44791667 13.375,7.53125 L13.375,8.46875 C13.375,8.55208333 13.3333333,8.59375 13.25,8.59375 L8.593,8.593 L8.59375,13.5 C8.59375,13.5833333 8.55208333,13.625 8.46875,13.625 L7.53125,13.625 C7.44791667,13.625 7.40625,13.5833333 7.40625,13.5 L7.406,8.593 L2.75,8.59375 C2.66666667,8.59375 2.625,8.55208333 2.625,8.46875 L2.625,7.53125 C2.625,7.44791667 2.66666667,7.40625 2.75,7.40625 L7.406,7.406 L7.40625,2.5 C7.40625,2.41666667 7.44791667,2.375 7.53125,2.375 L8.46875,2.375 Z" id="形状" fill="currentColor"></path>
    </g>
</svg>