<?xml version="1.0" encoding="UTF-8"?>
<svg width="24px" height="24px" viewBox="0 0 24 24" version="1.1" xmlns="http://www.w3.org/2000/svg" xmlns:xlink="http://www.w3.org/1999/xlink">
    <title></title>
    <g id="BN_WEB/弹窗/标签弹窗/标签-选中图标" stroke="none" stroke-width="1" fill="none" fill-rule="evenodd">
        <path d="M24,2.00494659 L24,18.0056959 C24,21.3162587 21.3167544,24 18.0056959,24 L2.00494659,24 C0.897645164,24 0.629605517,23.3703945 1.41170852,22.5882915 L22.5882915,1.41170852 C23.3679566,0.632043433 24,0.897026226 24,2.00494659 Z M19.90625,12.8554688 L19.2236328,12.8554688 C19.1279297,12.8554688 19.0371094,12.8994141 18.9785156,12.9746094 L14.9521484,18.0751953 L13.0214844,15.6289063 C12.9619141,15.5537109 12.8720703,15.5097656 12.7763672,15.5097656 L12.09375,15.5097656 C12.0283203,15.5097656 11.9921875,15.5849609 12.0322266,15.6357422 L14.7070313,19.0244141 C14.8320313,19.1826172 15.0722656,19.1826172 15.1982422,19.0244141 L19.9677734,12.9804688 C20.0078125,12.9306641 19.9716797,12.8554688 19.90625,12.8554688 Z" id="形状结合" fill="#08C5AC"></path>
    </g>
</svg>